<?xml version="1.0" standalone="no"?>
<!DOCTYPE svg PUBLIC "-//W3C//DTD SVG 20010904//EN"
 "http://www.w3.org/TR/2001/REC-SVG-20010904/DTD/svg10.dtd">
<svg version="1.0" xmlns="http://www.w3.org/2000/svg"
 width="1099.000000pt" height="619.000000pt" viewBox="0 0 1099.000000 619.000000"
 preserveAspectRatio="xMidYMid meet">
<metadata>
Created by potrace 1.16, written by Peter Selinger 2001-2019
</metadata>
<g transform="translate(0.000000,619.000000) scale(0.100000,-0.100000)"
fill="#000000" stroke="none">
<path d="M0 3095 l0 -3095 5495 0 5495 0 -2 568 c-3 510 -5 567 -19 567 -20 0
-49 29 -49 49 0 9 -6 16 -14 16 -19 0 -39 26 -42 55 -3 29 13 44 22 21 3 -9
10 -16 14 -16 5 0 2 13 -6 30 -8 16 -16 42 -17 57 -1 15 -6 31 -12 35 -6 4 -1
16 13 28 26 24 27 33 8 49 -11 10 -16 8 -24 -6 -6 -10 -14 -14 -19 -10 -4 5
-1 14 8 20 8 7 24 24 33 40 10 15 23 27 30 27 6 0 12 11 12 25 1 14 -2 22 -7
19 -15 -9 -10 13 6 26 9 7 13 21 10 31 -4 13 -1 19 9 19 18 0 21 15 6 25 -22
13 -9 24 18 14 l27 -10 -26 23 c-21 19 -25 28 -19 53 4 17 8 23 9 15 1 -8 8 0
16 19 13 29 15 324 15 2217 l0 2184 -5495 0 -5495 0 0 -3095z m1534 1334 c5
-5 8 -10 5 -13 -2 -2 -102 -6 -222 -8 -186 -4 -221 -3 -233 10 -13 12 -13 16
-2 24 16 10 440 -1 452 -13z m-403 -189 c18 -10 19 -23 19 -171 0 -180 -1
-182 -71 -159 -39 13 -39 13 -39 67 0 29 4 53 9 53 15 0 29 52 36 130 9 96 10
99 46 80z m374 -171 c5 -5 18 -9 30 -9 11 -1 35 -14 54 -30 l34 -29 -20 -58
c-12 -32 -24 -75 -28 -96 -8 -46 -24 -54 -69 -33 -23 11 -62 16 -119 16 -92 0
-117 5 -117 25 0 8 30 14 97 18 53 4 101 11 106 16 11 11 12 50 2 107 l-7 42
-81 1 c-80 2 -111 12 -91 30 19 19 189 19 209 0z m-617 -305 c20 -14 23 -23
20 -67 -3 -51 -4 -52 -36 -55 -18 -2 -47 4 -64 13 -29 14 -33 14 -41 0 -14
-26 -27 -6 -27 41 0 36 3 44 19 44 10 0 24 6 31 14 6 8 24 17 38 19 15 2 29 5
32 6 3 0 16 -6 28 -15z m238 -39 c15 -42 17 -140 6 -215 -7 -42 -9 -45 -36
-43 -55 4 -69 32 -82 165 -4 43 -2 49 25 69 16 12 32 33 36 46 9 36 35 25 51
-22z m-228 -144 c9 -5 12 -24 10 -52 l-3 -44 -45 2 c-106 5 -120 12 -120 58 0
33 2 34 35 33 19 -1 38 2 42 5 9 10 65 8 81 -2z m4052 -281 c11 0 24 -9 30
-20 6 -11 16 -19 22 -17 16 3 29 -68 18 -98 -6 -15 -14 -23 -20 -20 -5 3 -10
-1 -10 -10 0 -8 7 -18 15 -21 8 -4 15 -10 15 -15 0 -4 11 -25 25 -45 14 -20
25 -44 25 -53 0 -15 74 -57 93 -53 4 1 7 -4 7 -12 0 -8 5 -18 12 -22 7 -5 9
-1 6 13 -5 19 -3 20 23 13 16 -5 36 -16 45 -24 8 -9 22 -16 30 -16 8 0 17 -7
20 -15 4 -9 19 -15 36 -15 17 0 27 -4 23 -10 -3 -6 4 -10 18 -10 13 0 45 -3
71 -6 38 -6 46 -4 46 9 0 9 -11 24 -25 33 -40 26 -25 39 44 40 34 1 67 6 73
12 8 8 15 9 25 1 9 -9 17 -8 28 1 11 9 18 10 28 1 8 -6 17 -8 21 -4 4 4 26 6
49 5 23 -1 36 1 30 4 -7 3 -13 12 -13 20 0 9 -4 13 -8 10 -5 -3 -7 7 -4 23 2
15 13 33 24 40 19 12 23 10 39 -10 15 -20 16 -26 4 -39 -9 -10 -11 -20 -5 -30
14 -23 12 -33 -6 -26 -12 5 -15 2 -10 -10 3 -8 6 -25 6 -35 0 -11 5 -17 10
-14 10 6 14 -20 10 -58 -1 -10 3 -24 9 -31 6 -7 11 -26 11 -42 0 -34 5 -86 15
-165 6 -42 4 -63 -9 -87 -9 -17 -16 -42 -16 -56 0 -14 -5 -28 -11 -31 -6 -4
-9 -25 -7 -48 1 -25 -2 -42 -10 -45 -6 -2 -12 -12 -12 -23 0 -12 -7 -19 -19
-19 -27 0 -33 -14 -16 -36 16 -22 20 -94 5 -94 -6 0 -15 11 -20 25 -5 14 -16
25 -25 25 -20 0 -19 -12 5 -42 11 -14 19 -38 19 -54 -1 -16 1 -38 3 -49 2 -17
-2 -19 -28 -17 -29 3 -30 2 -26 -31 2 -22 -2 -38 -12 -46 -9 -8 -16 -19 -16
-26 0 -6 -19 -18 -42 -25 l-43 -12 28 -22 c15 -12 27 -24 27 -26 0 -3 -17 -5
-37 -5 -37 0 -38 -1 -52 -52 -10 -40 -19 -53 -32 -53 -14 0 -19 -7 -19 -25 0
-14 -6 -28 -14 -31 -11 -4 -13 -18 -10 -50 3 -38 0 -46 -21 -60 -14 -9 -25
-22 -25 -30 0 -7 -11 -25 -24 -41 -20 -23 -26 -25 -39 -15 -12 11 -18 9 -34
-12 l-20 -25 -17 21 c-18 20 -18 20 -36 -10 -10 -17 -26 -34 -35 -40 -22 -12
-65 -3 -72 14 -7 19 -30 18 -41 -2 -8 -14 -12 -14 -33 -3 -13 8 -32 24 -42 37
-21 25 -39 30 -31 8 3 -8 1 -17 -5 -21 -6 -3 -11 0 -11 8 0 10 -16 17 -45 21
-36 6 -45 11 -45 27 0 11 7 19 18 20 13 0 12 3 -6 12 -17 8 -25 8 -30 0 -12
-20 -94 -3 -100 19 -2 11 -10 17 -18 14 -18 -7 -36 49 -25 78 14 36 50 53 101
48 25 -2 51 -9 58 -14 7 -6 33 -11 59 -12 l47 -1 18 50 c10 28 18 58 18 67 0
25 -19 32 -39 14 -24 -22 -31 -20 -61 15 -14 18 -41 37 -60 43 -41 13 -82 83
-78 131 l3 30 65 -4 c35 -2 74 -10 85 -17 18 -12 24 -12 40 0 17 12 16 13 -14
19 -37 8 -33 27 6 27 16 0 27 -7 30 -20 6 -23 26 -26 42 -6 19 23 67 31 181
31 101 0 142 12 89 27 -124 33 -160 41 -199 44 -119 7 -198 17 -225 30 -16 8
-52 15 -78 16 -26 0 -50 4 -52 8 -3 4 12 28 32 53 29 36 42 45 59 41 24 -6 39
9 27 29 -4 6 -6 22 -4 35 1 12 -3 22 -10 22 -7 0 12 22 42 50 l54 49 -32 1
c-59 0 -114 79 -115 162 0 48 3 54 48 98 43 42 48 52 49 93 0 26 -3 47 -7 47
-11 0 -10 68 2 75 5 3 9 18 8 33 -1 36 9 108 16 121 3 5 1 21 -6 36 -9 20 -9
31 0 45 8 14 8 21 1 26 -6 3 -8 19 -5 35 3 16 1 29 -6 31 -7 3 -8 16 -3 38 5
19 10 29 12 23 3 -7 13 -13 23 -13z m-2940 -95 c17 -9 30 -20 30 -25 0 -6 9
-10 20 -10 61 0 189 -89 220 -152 11 -23 20 -47 20 -54 0 -6 7 -17 15 -24 8
-7 15 -21 15 -31 0 -11 5 -19 10 -19 6 0 10 -7 10 -15 0 -9 17 -34 38 -58 21
-23 47 -55 58 -72 24 -37 59 -134 50 -142 -3 -3 0 -13 7 -22 11 -14 10 -14 -5
-2 -16 12 -19 10 -27 -10 -5 -13 -22 -37 -39 -52 -27 -26 -31 -27 -40 -12 -5
10 -15 15 -21 11 -6 -4 -9 -12 -6 -17 11 -16 -10 -9 -49 17 -44 30 -57 24 -58
-27 0 -19 -5 -40 -10 -46 -6 -7 -7 -20 -4 -29 12 -30 -18 -98 -65 -149 -85
-91 -99 -108 -99 -121 0 -7 -7 -17 -17 -22 -10 -6 -14 -16 -10 -26 5 -11 1
-16 -13 -16 -12 0 -20 -7 -21 -17 -2 -39 -18 35 -24 110 -9 108 -27 100 -41
-19 -5 -47 -44 -104 -71 -104 -8 0 -11 -5 -7 -12 6 -10 4 -10 -7 0 -16 14 -43
16 -34 2 3 -5 -3 -10 -15 -10 -18 0 -20 -4 -14 -22 6 -20 5 -21 -10 -9 -24 20
-86 24 -86 6 0 -8 -7 -15 -15 -15 -8 0 -15 -4 -15 -9 0 -5 -11 -12 -25 -15
-31 -8 -54 2 -34 15 10 6 8 9 -8 9 -13 0 -23 -6 -23 -14 0 -15 -45 -30 -60
-21 -6 4 -10 12 -10 20 0 11 -8 11 -37 3 -21 -5 -44 -15 -51 -21 -11 -8 -18
-6 -30 10 -20 23 -49 36 -57 24 -6 -11 -60 1 -102 22 -30 16 -33 16 -42 -1 -7
-11 -13 -13 -18 -6 -5 6 -16 13 -25 17 -10 3 -18 12 -18 20 0 14 -33 15 -64 2
-14 -6 -25 -2 -43 19 -12 15 -27 25 -33 21 -5 -3 -17 6 -26 20 -18 27 -40 34
-30 10 9 -24 -10 -17 -40 14 -16 17 -33 27 -42 23 -9 -3 -13 -1 -9 5 4 6 -4
14 -18 17 -14 4 -24 12 -22 18 1 7 -5 12 -13 13 -21 1 -93 73 -85 85 3 5 0 7
-9 4 -9 -3 -17 2 -21 15 -3 12 -12 21 -19 21 -21 0 -86 79 -79 96 3 9 0 20 -8
24 -16 11 -13 88 5 110 14 17 46 83 46 96 0 5 14 37 32 72 17 35 31 77 30 94
0 17 8 39 19 51 10 11 19 28 19 36 0 9 7 29 15 45 8 15 15 34 15 41 0 7 5 15
11 17 5 2 11 11 13 20 4 28 9 30 123 44 73 9 230 13 489 14 l380 0 40 34 c47
40 133 94 152 95 7 1 26 -6 42 -14z m4027 -529 c-15 -45 -45 -118 -66 -161
-34 -68 -40 -75 -41 -50 0 47 65 302 86 337 3 5 15 -3 26 -18 l21 -26 -26 -82z
m-93 -471 c26 -247 28 -321 12 -519 -35 -440 -36 -545 -7 -497 5 7 17 11 27 9
25 -4 30 -58 9 -95 -15 -27 -16 -27 -10 -3 19 71 0 91 -34 37 -26 -43 -26 -45
4 -57 14 -5 25 -15 25 -23 0 -10 12 -11 60 -3 128 21 276 -30 369 -129 159
-168 155 -424 -8 -585 -170 -168 -435 -168 -594 -1 -30 31 -64 75 -75 97 -86
168 -62 357 61 489 39 41 47 57 47 88 0 24 5 40 15 43 8 3 18 20 24 37 12 40
30 241 36 417 3 74 10 184 16 244 13 118 8 237 -16 420 -9 65 -13 128 -9 139
6 18 9 15 25 -19 10 -21 20 -61 23 -89z m-139 -371 c9 3 15 -8 20 -32 9 -48
15 -376 7 -367 -4 3 -14 -38 -23 -92 -9 -54 -20 -116 -24 -138 -9 -46 -34 -82
-46 -64 -9 15 -29 3 -29 -17 0 -25 -30 -74 -44 -74 -8 0 -16 -7 -20 -15 -3 -8
-9 -14 -13 -14 -10 3 -40 -8 -73 -26 -44 -23 -150 -23 -150 0 0 8 -12 17 -27
20 -16 4 -39 12 -53 20 -20 11 -30 11 -63 -2 -28 -11 -41 -13 -49 -5 -8 8 -5
14 13 21 28 11 69 47 69 62 0 5 -7 12 -15 15 -19 8 -19 44 0 72 9 12 15 27 14
34 -5 42 2 60 30 69 16 6 32 16 35 24 2 7 18 16 35 20 22 5 36 16 47 40 8 18
31 44 50 57 19 13 37 33 40 46 4 12 9 22 13 22 4 0 29 33 56 73 27 39 56 81
65 92 10 11 34 52 55 90 49 91 59 104 63 81 2 -10 10 -15 17 -12z m-756 -802
c80 -31 127 -66 176 -133 61 -83 87 -156 88 -249 1 -215 -136 -386 -344 -431
-159 -34 -358 55 -437 194 -144 255 -24 551 258 633 63 19 192 11 259 -14z
m5618 -12 c261 -128 322 -464 122 -675 -161 -170 -422 -176 -594 -14 -30 28
-65 70 -79 93 -119 204 -38 483 174 591 71 37 113 45 212 42 86 -4 105 -8 165
-37z"/>
<path d="M4979 2387 c-24 -27 -31 -52 -27 -103 l3 -39 70 3 c54 3 75 9 93 25
l23 22 -20 16 c-12 10 -21 22 -21 29 0 7 -8 9 -20 5 -16 -5 -20 -2 -20 17 0
17 -8 27 -30 35 -27 10 -33 9 -51 -10z"/>
<path d="M5991 1030 c-18 -8 -22 -15 -17 -33 4 -12 12 -70 18 -129 l12 -108
83 0 c90 0 103 -8 103 -66 l0 -27 23 21 c13 12 26 22 30 22 4 0 7 -34 7 -75 0
-41 -4 -75 -8 -75 -5 0 -17 9 -28 21 -18 20 -18 20 -29 -23 l-10 -43 -111 -3
-111 -3 -13 -42 c-6 -23 -19 -53 -27 -67 l-14 -25 6 25 c4 14 9 69 12 123 5
93 4 97 -15 97 -16 0 -24 10 -31 38 -11 36 -34 157 -46 236 l-6 38 -25 -23
c-14 -13 -44 -61 -67 -107 -39 -79 -41 -89 -41 -170 0 -67 6 -100 23 -142 74
-180 263 -290 447 -260 129 21 250 111 306 228 56 118 49 274 -18 388 -35 60
-116 131 -182 161 -46 21 -76 27 -152 30 -52 1 -106 -2 -119 -7z"/>
<path d="M5985 688 c-3 -18 -9 -57 -12 -85 l-5 -53 91 0 91 0 0 85 0 85 -79 0
-79 0 -7 -32z"/>
<path d="M4765 1023 c-116 -42 -191 -107 -241 -208 -77 -158 -47 -335 77 -464
202 -208 567 -136 667 132 78 208 -9 417 -215 519 -55 27 -79 32 -152 35 -64
3 -99 -1 -136 -14z m165 -262 c5 -11 10 -43 10 -71 0 -67 -13 -90 -51 -90 -22
0 -32 6 -39 26 -15 38 -12 107 6 132 19 27 60 29 74 3z"/>
<path d="M10381 1024 c-160 -43 -275 -171 -302 -333 -27 -169 67 -344 229
-423 54 -27 79 -33 152 -36 107 -5 189 18 265 76 109 82 159 185 159 327 0
120 -25 184 -104 269 -108 115 -254 159 -399 120z m183 -448 c33 -14 53 -46
41 -66 -4 -6 -56 -10 -126 -10 l-119 0 0 25 c0 55 122 85 204 51z"/>
</g>
</svg>
